<svg xmlns="http://www.w3.org/2000/svg" width="35" height="35" viewBox="0 0 35 35"><g transform="translate(-182 -21)"><path d="M17.5,1A16.5,16.5,0,0,0,5.833,29.167,16.5,16.5,0,1,0,29.167,5.833,16.392,16.392,0,0,0,17.5,1m0-1A17.5,17.5,0,1,1,0,17.5,17.5,17.5,0,0,1,17.5,0Z" transform="translate(182 21)" fill="#0243a6"/><path d="M5.263,15.615H2.4V8.492H0V5.717H2.4V3.669A3.724,3.724,0,0,1,3.387.944,3.571,3.571,0,0,1,5.967,0,19.859,19.859,0,0,1,8.109.11V2.592H6.639c-1.142,0-1.376.54-1.376,1.351V5.717H8.012L7.654,8.492H5.263v7.122Z" transform="translate(195.445 30.379)" fill="#0243a6"/></g></svg>