<svg xmlns="http://www.w3.org/2000/svg" width="35" height="35" viewBox="0 0 35 35"><g transform="translate(-223 -21)"><circle cx="17.5" cy="17.5" r="17.5" transform="translate(223 21)" fill="#0243a6"/><g transform="translate(232.975 28.48)"><path d="M61.031.814c-1.322.857-1.581,3.536-1.082,5.72a19.725,19.725,0,0,0,2.608,6.13,20.484,20.484,0,0,0,4.533,4.881c1.79,1.346,4.343,2.2,5.664,1.345a6.693,6.693,0,0,0,1.706-1.83l-.71-1.095L71.8,12.955c-.145-.224-1.055-.019-1.517.243a4.4,4.4,0,0,0-1.2,1.3c-.428.247-.786,0-1.534-.343a9.111,9.111,0,0,1-2.776-2.928A9.11,9.11,0,0,1,63.231,7.5c-.009-.824-.088-1.251.312-1.541a4.4,4.4,0,0,0,1.677-.563c.428-.315.985-1.063.84-1.286L64.108,1.1,63.4,0A6.694,6.694,0,0,0,61.031.814Z" transform="translate(-59.712 0.001)" fill="#fff"/></g></g></svg>