<svg xmlns="http://www.w3.org/2000/svg" width="35" height="35" viewBox="0 0 35 35"><g transform="translate(-140 -21)"><path d="M17.5,1A16.5,16.5,0,0,0,5.833,29.167,16.5,16.5,0,1,0,29.167,5.833,16.392,16.392,0,0,0,17.5,1m0-1A17.5,17.5,0,1,1,0,17.5,17.5,17.5,0,0,1,17.5,0Z" transform="translate(140 21)" fill="#0243a6"/><g transform="translate(149.761 30.379)"><path d="M15.219,0H8.693A4.412,4.412,0,0,0,4.281,4.412V11.2a4.412,4.412,0,0,0,4.412,4.412h6.527A4.412,4.412,0,0,0,19.631,11.2V4.412A4.412,4.412,0,0,0,15.219,0ZM5.847,4.412A2.849,2.849,0,0,1,8.693,1.566h6.527a2.849,2.849,0,0,1,2.846,2.846V11.2a2.849,2.849,0,0,1-2.846,2.846H8.693A2.849,2.849,0,0,1,5.847,11.2Z" transform="translate(-4.281 0)" fill="#0243a6"/><path d="M128.169,132.186a4.02,4.02,0,1,0-4.02-4.02A4.025,4.025,0,0,0,128.169,132.186Zm0-6.788a2.767,2.767,0,1,1-2.767,2.767A2.77,2.77,0,0,1,128.169,125.4Z" transform="translate(-120.494 -120.36)" fill="#0243a6"/><ellipse cx="0.901" cy="0.901" rx="0.901" ry="0.901" transform="translate(10.912 2.767)" fill="#0243a6"/></g></g></svg>