<svg xmlns="http://www.w3.org/2000/svg" xmlns:xlink="http://www.w3.org/1999/xlink" width="666.412" height="10.994" viewBox="0 0 666.412 10.994"><defs><clipPath id="a"><rect width="666.412" height="10.994" transform="translate(0 0)" fill="none" stroke="#fafafa" stroke-width="1"/></clipPath></defs><g transform="translate(0 0)" clip-path="url(#a)"><path d="M651.258,10.994c-4.433,0-6.682-2.372-8.666-4.465C640.8,4.635,639.248,3,636.1,3s-4.693,1.635-6.487,3.529c-1.983,2.093-4.232,4.465-8.665,4.465s-6.68-2.372-8.664-4.465C610.494,4.635,608.944,3,605.8,3s-4.69,1.635-6.484,3.529c-1.983,2.093-4.23,4.465-8.662,4.465s-6.681-2.372-8.664-4.465C580.2,4.635,578.647,3,575.505,3s-4.691,1.635-6.485,3.529c-1.983,2.093-4.231,4.465-8.663,4.465s-6.68-2.372-8.663-4.465C549.9,4.635,548.351,3,545.209,3s-4.69,1.635-6.484,3.528c-1.983,2.093-4.231,4.466-8.663,4.466s-6.68-2.372-8.663-4.465C519.605,4.635,518.056,3,514.914,3s-4.691,1.635-6.485,3.529c-1.983,2.093-4.23,4.465-8.662,4.465s-6.678-2.372-8.661-4.465C489.312,4.635,487.763,3,484.622,3s-4.69,1.635-6.483,3.529c-1.983,2.093-4.23,4.465-8.661,4.465s-6.68-2.372-8.663-4.466C459.021,4.635,457.472,3,454.331,3s-4.689,1.635-6.483,3.528c-1.983,2.093-4.23,4.466-8.662,4.466s-6.68-2.372-8.663-4.465C428.729,4.635,427.18,3,424.038,3s-4.69,1.635-6.484,3.529c-1.983,2.093-4.23,4.465-8.662,4.465s-6.679-2.372-8.662-4.465C398.436,4.635,396.887,3,393.745,3s-4.689,1.635-6.483,3.528c-1.983,2.093-4.23,4.466-8.662,4.466s-6.679-2.372-8.662-4.465C368.144,4.635,366.6,3,363.454,3s-4.69,1.635-6.484,3.529c-1.983,2.093-4.23,4.465-8.662,4.465s-6.679-2.372-8.662-4.465C337.852,4.635,336.3,3,333.161,3s-4.69,1.635-6.484,3.529c-1.983,2.093-4.23,4.465-8.662,4.465s-6.678-2.372-8.661-4.465C307.561,4.635,306.012,3,302.871,3s-4.69,1.635-6.484,3.529c-1.983,2.093-4.23,4.465-8.662,4.465s-6.679-2.372-8.662-4.466C277.27,4.635,275.721,3,272.58,3s-4.69,1.635-6.483,3.529c-1.983,2.093-4.23,4.465-8.661,4.465s-6.679-2.372-8.662-4.465C246.98,4.635,245.431,3,242.29,3s-4.69,1.635-6.483,3.529c-1.983,2.093-4.23,4.465-8.661,4.465s-6.679-2.372-8.662-4.465C216.69,4.635,215.141,3,212,3s-4.69,1.635-6.483,3.529c-1.982,2.093-4.229,4.465-8.66,4.465s-6.679-2.372-8.662-4.466C186.4,4.635,184.853,3,181.712,3s-4.69,1.635-6.483,3.529c-1.982,2.093-4.229,4.465-8.66,4.465s-6.679-2.372-8.661-4.466C156.115,4.635,154.566,3,151.426,3s-4.689,1.635-6.483,3.528c-1.983,2.093-4.23,4.466-8.662,4.466s-6.677-2.372-8.659-4.465C125.829,4.635,124.28,3,121.14,3s-4.69,1.635-6.483,3.529c-1.983,2.093-4.23,4.465-8.661,4.465s-6.678-2.372-8.66-4.465C95.543,4.635,93.994,3,90.853,3s-4.688,1.635-6.481,3.528c-1.982,2.093-4.229,4.466-8.66,4.466s-6.678-2.372-8.66-4.465C65.259,4.635,63.71,3,60.569,3S55.88,4.635,54.087,6.528c-1.983,2.093-4.23,4.466-8.661,4.466s-6.677-2.372-8.659-4.466C34.974,4.635,33.426,3,30.286,3S25.6,4.635,23.805,6.528c-1.982,2.093-4.229,4.466-8.66,4.466S8.467,8.622,6.484,6.529C4.69,4.635,3.141,3,0,3V0C4.432,0,6.679,2.372,8.662,4.466,10.455,6.359,12,7.994,15.145,7.994s4.689-1.635,6.482-3.529C23.609,2.372,25.856,0,30.286,0s6.677,2.372,8.659,4.466c1.793,1.893,3.341,3.528,6.481,3.528s4.69-1.635,6.483-3.529C53.891,2.372,56.138,0,60.569,0s6.679,2.372,8.661,4.466c1.793,1.893,3.342,3.528,6.482,3.528S80.4,6.359,82.194,4.465C84.176,2.372,86.423,0,90.853,0s6.679,2.372,8.661,4.466c1.793,1.893,3.342,3.528,6.482,3.528s4.69-1.635,6.483-3.529C114.462,2.372,116.709,0,121.14,0s6.678,2.373,8.66,4.466c1.793,1.893,3.341,3.528,6.481,3.528s4.69-1.635,6.484-3.529C144.748,2.372,146.995,0,151.426,0s6.678,2.372,8.66,4.465c1.793,1.893,3.342,3.529,6.483,3.529s4.689-1.635,6.482-3.528C175.033,2.372,177.281,0,181.712,0s6.678,2.372,8.661,4.465c1.794,1.893,3.343,3.529,6.484,3.529s4.689-1.635,6.482-3.528C205.321,2.372,207.569,0,212,0s6.679,2.372,8.662,4.465c1.794,1.893,3.343,3.529,6.484,3.529s4.69-1.635,6.483-3.529C235.612,2.372,237.859,0,242.29,0s6.679,2.372,8.662,4.465c1.794,1.893,3.343,3.529,6.484,3.529s4.69-1.635,6.483-3.529C265.9,2.372,268.149,0,272.58,0s6.678,2.372,8.661,4.465c1.794,1.893,3.343,3.529,6.484,3.529s4.69-1.635,6.484-3.529C296.192,2.372,298.439,0,302.871,0s6.678,2.372,8.661,4.465c1.793,1.893,3.342,3.529,6.483,3.529s4.69-1.635,6.484-3.529C326.482,2.372,328.729,0,333.161,0s6.68,2.372,8.663,4.466c1.794,1.893,3.343,3.528,6.484,3.528s4.69-1.635,6.484-3.529C356.775,2.372,359.022,0,363.454,0s6.679,2.372,8.662,4.465c1.794,1.893,3.343,3.529,6.484,3.529s4.69-1.635,6.484-3.529C387.067,2.372,389.314,0,393.745,0s6.68,2.372,8.663,4.466c1.794,1.893,3.343,3.528,6.484,3.528s4.69-1.635,6.484-3.529C417.359,2.372,419.606,0,424.038,0s6.68,2.372,8.663,4.465c1.794,1.893,3.343,3.529,6.485,3.529s4.69-1.635,6.484-3.529C447.653,2.372,449.9,0,454.331,0s6.679,2.372,8.662,4.465c1.794,1.894,3.343,3.529,6.485,3.529s4.69-1.635,6.483-3.529C477.944,2.372,480.191,0,484.622,0s6.679,2.372,8.662,4.466c1.793,1.893,3.342,3.528,6.483,3.528s4.69-1.635,6.484-3.528C508.234,2.372,510.482,0,514.914,0s6.68,2.372,8.663,4.465c1.794,1.893,3.343,3.529,6.485,3.529s4.691-1.635,6.485-3.529C538.53,2.372,540.777,0,545.209,0s6.68,2.372,8.663,4.465c1.794,1.893,3.343,3.529,6.485,3.529s4.691-1.635,6.485-3.529C568.825,2.372,571.073,0,575.505,0s6.681,2.372,8.664,4.465c1.794,1.893,3.344,3.529,6.486,3.529s4.69-1.635,6.484-3.529C599.122,2.372,601.369,0,605.8,0s6.681,2.372,8.665,4.465c1.794,1.893,3.344,3.529,6.486,3.529s4.693-1.635,6.487-3.529C629.423,2.372,631.671,0,636.1,0s6.682,2.372,8.666,4.465c1.795,1.894,3.345,3.529,6.488,3.529s4.694-1.635,6.488-3.529C659.73,2.372,661.979,0,666.412,0V3c-3.144,0-4.694,1.635-6.488,3.529C657.94,8.622,655.691,10.994,651.258,10.994Z" fill="#fafafa"/><path d="M1,1V42H29V1H1M0,0H30V43H0Z" transform="translate(0 -85.006)" fill="#fff"/></g></svg>