<svg xmlns="http://www.w3.org/2000/svg" width="161.783" height="139.931" viewBox="0 0 161.783 139.931"><g transform="translate(-906.842 -2014.35)"><g transform="translate(897.08 1996.049) rotate(4)"><path d="M172.707,62.974C168.194,31.16,132.874,13.208,88.045,17.6c-41.1,4.009-72.09,35.158-67.577,66.993,2.9,20.511,26.213,36.428,46.1,43.2,4.151,1.41,9.047,2.519,9.329,5.1.242,2.136-1.733,4.332-3.969,5.964a32.026,32.026,0,0,1-8.744,4.775c-1.793.645-1.632,2.841.725,2.881,7.415.1,25.064-4.07,40.679-8.523,32.277-9.188,51.68-20.531,63.446-44.145C172.264,85.319,174.057,72.424,172.707,62.974Z" transform="translate(0 0)" fill="#bf0505"/></g><path d="M-26.35-1.258C-29.733-2.482-31.926-4.5-33.1-9.486c.034-.527.051-1.054.051-1.615v-2.788h-2.244V-11.1c0,4.981-1.19,8.789-6.188,11.832l.306.527c4.845-1.768,7.191-4.743,7.888-9.01.68,4.318,2.754,7.582,5.542,9.027Zm8.075-9.265a9.8,9.8,0,0,0,2.4-2.057l-2.04-.8a13.92,13.92,0,0,1-.629,2.584ZM-21.233-11.8a10.781,10.781,0,0,0-2.329-1.428l-.323.391a7.249,7.249,0,0,1,1.173,2.329ZM-9.35-1a5.922,5.922,0,0,1-2.754-1.8c1.122-1.989,1.5-4.471,1.853-7.65h.9v-.612h-3.995a23.658,23.658,0,0,0,.629-2.516l-2.312-.374a24,24,0,0,1-1.547,8.228l.357.255c.544-.782,1.02-1.513,1.411-2.21a21.18,21.18,0,0,0,1.122,4.573,10.53,10.53,0,0,1-3.638,4l.2.374a10.5,10.5,0,0,0,4.131-2.8,7.843,7.843,0,0,0,2.584,2.8Zm-6.834-.459c-.68-.238-1.292-.442-1.853-.595a9.558,9.558,0,0,0,1.054-2.21h1.513v-.612h-4.743a4.678,4.678,0,0,0,.578-1.207l-.952-.255h1.428V-9.078a8.889,8.889,0,0,1,1.921,2.4L-15.912-8.5a17.347,17.347,0,0,0-3.247-1.02v-.34h3.383v-.612h-3.383v-3.213h-1.8v3.213h-3.162v.612h2.057a9.978,9.978,0,0,1-2.567,3.587l.187.323a8.142,8.142,0,0,0,3.485-2.873v2.38l-.51-.136a9.875,9.875,0,0,1-.714,1.7H-24.5v.612h2.04A17.567,17.567,0,0,1-23.766-1.9l1.513.578c.238-.323.459-.629.663-.952.391.17.748.34,1.088.51A8.35,8.35,0,0,1-24.633.765l.153.476A10.186,10.186,0,0,0-19.04-.9,16.857,16.857,0,0,1-17.272.51Zm3.893-8.993a25.632,25.632,0,0,1-.833,5.984A16.346,16.346,0,0,1-14.433-8.4a16.3,16.3,0,0,0,.884-2.057Zm-6.817,6.188A8.555,8.555,0,0,1-19.975-2.5c-.425-.068-.884-.136-1.36-.17.323-.527.612-1.071.867-1.6Zm21.046-.68v-.612H-1.785V-7.293H.884v-.612H-1.785v-1.53H.6v-.612A6.759,6.759,0,0,0,1.87-11.271v-1.02H-1.751v-1.734H-3.638v1.734H-7.225V-9.86H-6.2v.425h2.567v1.53h-2.89v.612h2.89v1.734H-7.65v.612ZM4.046-2.618v-8.6H2.329v8.6ZM5.083-1.19C5.083-.136,4.947.442,4.029.442A5.4,5.4,0,0,1,2.567.17V.748a8.808,8.808,0,0,0,2.516.51c1.5,0,1.887-.935,1.887-2.448V-13.515H5.083ZM.867.425V-3.638H-6.188v4.9h1.921V.408Zm-.884-12.1a5.489,5.489,0,0,1-.34,1.632H-1.785v-1.258H-3.638v1.258h-1.8v-1.632ZM-1.071-.187h-3.2V-3.026h3.2ZM23.324,1.292V-13.634H21.216V1.275ZM11.526.476a11.709,11.709,0,0,0,3.6.782c1.615,0,2.465-.833,2.771-2.635a39.745,39.745,0,0,0,.51-4.335H12.8A29.1,29.1,0,0,0,13.379-8.7H17.9v-4.335H10.489v.612h5.287v3.111h-4.4a25.825,25.825,0,0,1-1.105,5.1l2.125.2c.1-.374.187-.748.255-1.088h3.485a34,34,0,0,1-.34,3.5C15.572-.323,15.164.221,14.042.221a10.9,10.9,0,0,1-2.516-.459ZM32.181-.476a10.279,10.279,0,0,0-4.709-2.686l-.561.544A11.018,11.018,0,0,1,30.09,1.309ZM-34.5,9.658A11.7,11.7,0,0,0-36.73,8.3l-.306.306a8.846,8.846,0,0,1,1.462,2.329Zm-1.513,1.02a8.176,8.176,0,0,0-2.193-1.734l-.323.272a10.007,10.007,0,0,1,1.275,2.6Zm-.119,1.292h-6.12A12.67,12.67,0,0,0-41,9.607l-2.516-.714A12.983,12.983,0,0,1-48.341,16.1l.476.459a13.634,13.634,0,0,0,5.1-3.876h4.012c-.969,4.522-4.352,7.735-10.047,9.231l.323.629c6.7-.935,10.948-4.216,12.342-9.571Zm18.411,4.369a11.429,11.429,0,0,1-5.015,4.029V10.049h-2.329V22.221a12.957,12.957,0,0,0,7.82-5.151Zm-14.7,6.154c4.029-1.751,5.729-4.471,5.729-9.248v-2.72h-2.312v2.669c0,4.3-.8,6.885-3.774,8.823Zm31.076-5.984V14.843H-5.824c-3.213,0-6.647-.017-8.84-.153l.289,1.819Zm16.337-4.862A1.717,1.717,0,1,0,13.216,9.93a1.728,1.728,0,0,0,.646,1.326H3.016v.867h9.333c-.629,4.964-3.621,8.313-8.636,9.86L4,22.544c6.494-1.19,10.132-4.573,10.982-10.3ZM16.055,9.93a1.114,1.114,0,1,1-1.122-1.122A1.107,1.107,0,0,1,16.055,9.93Zm11.883,7.123v-.612H24.215V14.707h2.669v-.612H24.215v-1.53H26.6v-.612a6.759,6.759,0,0,0,1.275-1.224V9.709H24.249V7.975H22.362V9.709H18.775V12.14H19.8v.425h2.567v1.53h-2.89v.612h2.89v1.734H18.35v.612Zm2.108,2.329v-8.6H28.329v8.6Zm1.037,1.428c0,1.054-.136,1.632-1.054,1.632a5.4,5.4,0,0,1-1.462-.272v.578a8.808,8.808,0,0,0,2.516.51c1.5,0,1.887-.935,1.887-2.448V8.485H31.083Zm-4.216,1.615V18.362H19.812v4.9h1.921v-.85Zm-.884-12.1a5.489,5.489,0,0,1-.34,1.632H24.215V10.695H22.362v1.258h-1.8V10.321ZM24.929,21.813h-3.2V18.974h3.2ZM47.54,15.984a7.182,7.182,0,0,1,.128,1.248,3.565,3.565,0,0,1-3.376,3.888c-.176.016-.32.016-.48.016-1.312,0-1.76-.544-1.76-2.208,0-.224.016-.48.032-.752l.112-1.888c.576,0,1.136.016,1.7.016.8,0,1.568-.016,2.3-.032V15.6c-.9.016-1.856.032-2.848.032h-1.1c.032-.976.1-1.568.128-2.56,1.312.016,2.624.016,3.824.016v-.656c-.592,0-1.216.016-1.856.016s-1.3-.016-1.952-.016c.048-.96.08-1.9.1-2.72L40.2,9.648c-.016.832-.032,1.76-.064,2.752-1.184-.032-2.16-.064-3.168-.144v.672c.992.048,1.968.08,3.152.1-.016.992-.048,1.584-.1,2.56-1.232-.032-2.272-.08-3.28-.144V16.1c.992.064,2.016.112,3.248.16-.032.656-.064,1.264-.112,1.9-.016.32-.032.624-.032.912,0,2.56.976,3.648,3.28,3.648a10.219,10.219,0,0,0,1.152-.08,4.384,4.384,0,0,0,4.1-4.656,7.948,7.948,0,0,0-.272-1.952Zm-81.353,28.8c4.233-.323,6.783-2.023,6.783-5.015,0-2.618-2.04-3.927-5.831-3.927h-.289a8.362,8.362,0,0,0-1.462.153c0-.663.017-1.343.034-2.023,1.87-.017,3.893-.085,5.814-.221L-28.8,33c-1.8.136-3.842.221-5.763.255q.051-1.173.153-2.3l-2.363-.1c-.034.782-.068,1.6-.085,2.414-1.224-.017-2.329-.051-3.2-.1v.748c.9.034,1.989.051,3.179.068v.8c0,.646,0,1.309.017,1.955-2.261,1.071-3.961,2.924-4.114,4.539-.017.221-.034.425-.034.629,0,1.326.476,2.193,1.632,2.193a4.363,4.363,0,0,0,1.853-.493,14.922,14.922,0,0,0,6.613-6.681,3.048,3.048,0,0,1,1.462,2.89c0,2.21-1.649,3.961-4.726,4.352Zm-2.7-2.788a6.756,6.756,0,0,1-.935.459,2.422,2.422,0,0,1-.748.17c-.595,0-.816-.459-.816-1.224,0-.119.017-.221.017-.34a4.9,4.9,0,0,1,2.176-3.417C-36.754,39.189-36.652,40.685-36.516,41.994Zm3.5-5.542a4.762,4.762,0,0,1,1.343.17,17.084,17.084,0,0,1-2.754,3.706c-.085-1-.17-2.295-.187-3.689a5.407,5.407,0,0,1,1.394-.187Zm15.249,1.292c-.612.969-1,1.445-1.258,1.445-.221,0-.34-.408-.408-1.258-.034-.374-.051-.816-.051-1.292,0-1.479.136-3.417.323-5.372l-2.312-.136c-.136,1.547-.2,3.009-.2,4.369a27.679,27.679,0,0,0,.17,3.23c.17,1.428.731,2.244,1.5,2.244.8,0,1.785-.867,2.771-2.771Zm-1.224,7.242c4.029-.629,6.545-2.839,6.664-6.052.034-.765.051-1.632.051-2.55,0-1.683-.051-3.5-.119-5.117l-2.4.034c.17,1.938.255,3.961.255,5.763,0,.629-.017,1.224-.034,1.785-.119,2.941-1.7,4.811-4.726,5.542ZM6.137,42.674a32.546,32.546,0,0,0-4.131-1.853c-.017-1.275-.034-2.431-.085-3.808,1.411-.034,2.516-.136,3.893-.2l-.068-.748c-1.36.119-2.448.238-3.842.255-.017-.918-.034-1.632-.034-2.533,1.581-.051,2.754-.068,4.148-.221l-.068-.748a39.254,39.254,0,0,1-4.1.255V30.893H-.629c.034.765.034,1.428.068,2.227h-1c-1.547,0-2.839-.034-4.131-.085v.748c1.156.034,2.278.068,3.57.068.493,0,1.02,0,1.581-.017l.051,2.533h-.918c-1.428,0-2.618-.034-3.927-.085v.731c1.139.051,2.193.085,3.383.085.476,0,.969,0,1.5-.017l.051,3.179c-.527-.068-1.224-.187-1.819-.2h-.425c-2.295,0-3.485.629-3.485,1.87a1.287,1.287,0,0,0,.017.255c.136,1.241,1.649,2.091,3.876,2.346a12.475,12.475,0,0,0,1.479.1c2.023,0,2.788-.714,2.788-2.584,0-.1-.017-.238-.017-.357a15.469,15.469,0,0,1,3.655,1.9Zm-6.528-.85c0,1.309-.493,1.938-1.5,1.938a1.952,1.952,0,0,1-.306-.017c-1.173-.136-1.972-.561-1.972-1.564,0-1.19.765-1.394,1.938-1.394a7.7,7.7,0,0,1,1.836.255ZM13.94,45.071c3.927-.782,5.61-2.737,5.8-5.916v-.136a7.424,7.424,0,0,0-.34-1.9c.017-.765.017-1.462.017-2.227v-1.02c1.649-.034,2.856-.051,4.012-.051h.782V33.1c-1.479.034-2.771.068-4.794.085,0-1.02-.017-1.751-.017-2.431l-2.5.068c.068.816.119,1.564.136,2.38-2.363.017-4.454.051-6.2.051H10V34c1.938-.068,4.318-.085,7.072-.119v.17c0,.476-.051,1.088-.051,1.581A4.04,4.04,0,0,0,16,35.483,2.787,2.787,0,0,0,12.92,38.2c0,1.5.969,2.72,3.094,2.72a2.518,2.518,0,0,0,1.275-.323,5,5,0,0,1-3.757,3.944Zm.867-6.987c0-1.224.51-1.9,1.241-1.9H16.1c.731.051,1.309.612,1.309,2.006,0,1.292-.527,2.057-1.309,2.057-.765,0-1.275-.782-1.292-2.04Zm21.658,1.8a5.246,5.246,0,0,0,2.227-3.128,2.406,2.406,0,0,0,.034-.493,3.689,3.689,0,0,0-2.142-3.077,6.28,6.28,0,0,1-2.431-2.465h-.544V42.011a3.027,3.027,0,0,0-1.938-.646c-1.258,0-2.278.731-2.278,1.683,0,.884,1.037,1.6,2.278,1.6,1.428,0,2.686-.714,2.686-1.6V34.157a13.7,13.7,0,0,0,1.513.969,2.361,2.361,0,0,1,1.547,2.04,2.083,2.083,0,0,1-.034.323,3.778,3.778,0,0,1-1.241,2.057Z" transform="translate(991 2062.5) rotate(4)" fill="#fff"/></g></svg>