<svg xmlns="http://www.w3.org/2000/svg" width="74.5" height="70.119" viewBox="0 0 74.5 70.119"><circle cx="34.599" cy="34.599" r="34.599" fill="#bf0505"/><path d="M-6.624-4.872v1.356H-8.388a10.028,10.028,0,0,1-1.332-.06v1.344a11.967,11.967,0,0,1,1.332-.06h1.764v1.62H-9.6a12.193,12.193,0,0,1-1.536-.072V.66a10.348,10.348,0,0,1,1.5-.084h7.488A10.529,10.529,0,0,1-.636.66v-1.4A12.645,12.645,0,0,1-2.16-.672H-5.28v-1.62h1.944a11.878,11.878,0,0,1,1.32.06V-3.576a11.26,11.26,0,0,1-1.32.06H-5.28V-4.872h1.692a11.7,11.7,0,0,1,1.272.06v-.876c.54.312.888.5,1.428.756A5.672,5.672,0,0,1-.12-6.312,10.874,10.874,0,0,1-3.06-7.836,8.755,8.755,0,0,1-5.2-9.96H-6.72a5.04,5.04,0,0,1-.648.864,10.749,10.749,0,0,1-1.32,1.26,11.64,11.64,0,0,1-2.9,1.584A7.564,7.564,0,0,1-10.8-4.98a10.679,10.679,0,0,0,1.308-.684v.852a11.791,11.791,0,0,1,1.308-.06ZM-8.28-6.084c-.18,0-.288,0-.528-.012A9.633,9.633,0,0,0-5.916-8.82,10.76,10.76,0,0,0-2.964-6.1c-.228.012-.312.012-.564.012Zm9.192-.7A17.419,17.419,0,0,1,2.9-7.02c2.6-.192,3.072-.228,4.044-.372a5.289,5.289,0,0,0-1.668,1.2A4.23,4.23,0,0,0,4.14-3.36,3.211,3.211,0,0,0,5.856-.468,7.219,7.219,0,0,0,8.664.324,2.549,2.549,0,0,1,9.072.4l.216-1.632c-.12.012-.228.012-.24.012A7.282,7.282,0,0,1,7.26-1.536a2.015,2.015,0,0,1-1.6-1.956A3.9,3.9,0,0,1,8.088-6.7a5.367,5.367,0,0,1,2.376-.648,1.858,1.858,0,0,1,.252.012l-.084-1.536a6.775,6.775,0,0,1-1.38.12c-3.324.156-5.316.264-5.988.3-1.764.12-1.764.12-1.98.12-.06,0-.192,0-.456-.012ZM-18.84,13.412v.732h1.608a7.916,7.916,0,0,1-.06-1.236V6.32a7.28,7.28,0,0,1,.036-1c-.42.024-.42.024-1.044.024h-5.772a8.066,8.066,0,0,1-1.548-.084v1.56a11.743,11.743,0,0,1,1.536-.06h5.256V12h-5.46a7.715,7.715,0,0,1-1.5-.084V13.46a13.414,13.414,0,0,1,1.476-.048Zm5.8-7.62a31.655,31.655,0,0,1,6.552,1.38l.48-1.476A40,40,0,0,0-12.5,4.4Zm-.192,3.3A26.39,26.39,0,0,1-10.2,9.62a20.626,20.626,0,0,1,3.3.96L-6.432,9.1a37.709,37.709,0,0,0-6.252-1.392Zm-.972,3.372a33.386,33.386,0,0,1,3.768.7A22.015,22.015,0,0,1-6.192,14.5l.516-1.512a37.566,37.566,0,0,0-7.968-1.9Zm18.888.948v.732H6.288a7.915,7.915,0,0,1-.06-1.236V6.32a7.28,7.28,0,0,1,.036-1c-.42.024-.42.024-1.044.024H-.552A8.066,8.066,0,0,1-2.1,5.264v1.56a11.743,11.743,0,0,1,1.536-.06H4.692V12H-.768a7.715,7.715,0,0,1-1.5-.084V13.46a13.414,13.414,0,0,1,1.476-.048Zm5.8-7.62a31.655,31.655,0,0,1,6.552,1.38l.48-1.476a40,40,0,0,0-6.492-1.3Zm-.192,3.3a26.39,26.39,0,0,1,3.036.528,20.626,20.626,0,0,1,3.3.96L17.088,9.1a37.709,37.709,0,0,0-6.252-1.392Zm-.972,3.372a33.386,33.386,0,0,1,3.768.7A22.015,22.015,0,0,1,17.328,14.5l.516-1.512a37.566,37.566,0,0,0-7.968-1.9Zm13-.948a4.286,4.286,0,0,1-.024-.5c0-.168,0-.168.024-.876l.168-4.08c.024-.516.072-1.14.108-1.464H20.616c.048.336.084.936.108,1.464l.168,4.08c.036.732.036.732.036.864s-.012.264-.024.516Zm.168,2.628V12.5h-1.74v1.644Zm3.66-2.628a4.286,4.286,0,0,1-.024-.5c0-.168,0-.168.024-.876l.168-4.08c.024-.516.072-1.14.108-1.464H24.444c.048.336.084.936.108,1.464l.168,4.08c.036.732.036.732.036.864s-.012.264-.024.516Zm.168,2.628V12.5h-1.74v1.644Z" transform="translate(34.599 30.246)" fill="#fff"/><path d="M7.3,0l7.3,14.6H0Z" transform="matrix(-0.629, 0.777, -0.777, -0.629, 74.5, 58.771)" fill="#bf0505"/></svg>